<svg xmlns="http://www.w3.org/2000/svg" width="58.144" height="57.861" viewBox="0 0 58.144 57.861">
  <g id="Group_1" data-name="Group 1" transform="translate(-350.894 -351.619)">
    <path id="Path_1" data-name="Path 1" d="M406.083,515.4a2.955,2.955,0,0,0-2.955,2.955v9.7a7.371,7.371,0,0,1-7.362,7.362h-31.6a7.37,7.37,0,0,1-7.361-7.362v-9.7a2.955,2.955,0,1,0-5.91,0v9.7a13.286,13.286,0,0,0,13.271,13.272h31.6a13.287,13.287,0,0,0,13.272-13.272v-9.7A2.954,2.954,0,0,0,406.083,515.4Z" transform="translate(0 -131.851)" fill="#6e757c"/>
    <path id="Path_2" data-name="Path 2" d="M424.248,369.256a2.947,2.947,0,0,0,2.03-.809l7.4-7.008v32.019a2.955,2.955,0,0,0,5.91,0V361.439L447,368.447a2.955,2.955,0,0,0,4.063-4.292L438.67,352.428c-.017-.016-.035-.029-.052-.045s-.05-.046-.075-.068l-.068-.055c-.029-.023-.058-.044-.087-.066s-.05-.038-.076-.056-.049-.032-.074-.048l-.1-.06c-.024-.014-.047-.029-.072-.043s-.055-.029-.083-.043l-.1-.051c-.022-.01-.043-.022-.066-.032s-.064-.025-.1-.038l-.106-.039,0,0-.059-.022c-.035-.012-.071-.021-.107-.031l-.1-.026-.01,0-.057-.014c-.037-.008-.075-.015-.113-.022l-.1-.015-.072-.011-.113-.011-.1-.005-.085,0-.056,0-.056,0-.085,0-.1.005-.115.011-.07.011h0l-.1.015c-.039.007-.078.014-.117.022l-.044.011-.024.006-.1.025c-.038.011-.075.021-.112.033l-.041.015-.024.009-.1.036c-.034.013-.068.026-.1.04s-.042.02-.063.03-.069.032-.1.049-.06.029-.089.046l-.068.041c-.032.019-.065.038-.1.059s-.052.033-.078.05-.049.036-.073.054-.058.043-.087.066l-.07.056c-.025.021-.049.044-.073.066s-.036.029-.053.045l-12.391,11.727a2.955,2.955,0,0,0,2.032,5.1Z" transform="translate(-56.673)" fill="#6e757c"/>
  </g>
</svg>
