<svg xmlns="http://www.w3.org/2000/svg" width="98.047" height="94.393" viewBox="0 0 98.047 94.393">
  <g id="Group_39" data-name="Group 39" transform="translate(-67.582 -59.5)">
    <path id="Subtraction_3" data-name="Subtraction 3" d="M-536.07-2055h-.044c-4.6-.027-9.637-.039-16.317-.039h-9.261q-3.721,0-7.441,0h-58.611c-2.7,0-2.892-.194-2.9-2.958,0-.959,0-1.9,0-2.9v-.022c0-1.1,0-2.39,0-3.686a2.274,2.274,0,0,1,.519-1.659,1.618,1.618,0,0,1,1.193-.429,3.152,3.152,0,0,1,.422.03,13.254,13.254,0,0,0,1.752.128c2.768,0,4.442-1.241,5.427-4.024a6.153,6.153,0,0,1,2.555-3.079,16.981,16.981,0,0,1,4.095-1.851,10.191,10.191,0,0,1-5.728-4.055,14.832,14.832,0,0,1-2.181-6.343,58.185,58.185,0,0,1-.64-12.9,32.878,32.878,0,0,1,3.354-12.473,29.448,29.448,0,0,1,8.512-10.2c1.187-.908,1.6-1.451.552-2.842a11.012,11.012,0,0,1-1.955-10.132,11.794,11.794,0,0,0,.136-5.61c-.367-2.227-.208-3.644.516-4.594s2.1-1.5,4.422-1.743c3.7-.389,7.425-.849,11.031-1.294l.123-.015h.006l.367-.046.035,0h.008q1.48-.183,2.956-.363a.714.714,0,0,0,.323-.183l.008-.006c.045-.037.1-.079.144-.111h2.891c2.928,1.043,3.417,3.66,3.645,6.031a6.662,6.662,0,0,0,1.381,3.559,8.369,8.369,0,0,1,1.6,3.309,4.673,4.673,0,0,0,2.406,3.534,1.365,1.365,0,0,1,.661,1.925,1.432,1.432,0,0,1-1.219.929,1.145,1.145,0,0,1-.446-.094,1.5,1.5,0,0,0-.548-.146c-.313,0-.379.25-.478.628l-.013.048c-.017.064-.037.139-.059.21a14.693,14.693,0,0,1-3.959,6.628,15.823,15.823,0,0,1-6.818,3.639l-.091.024c-.4.108-.723.193-.839.438a1.065,1.065,0,0,0,.123.853,33.693,33.693,0,0,1,3.038,14.087l.512-.161.309-.1.628-.2.039-.012c1.184-.371,2.168-.679,3.143-1a1,1,0,0,0,.653-.483,1.494,1.494,0,0,0-.153-1.156c-.251-.619-.481-1.25-.7-1.86l0-.01-.011-.028a32.726,32.726,0,0,0-1.234-3.068,2.026,2.026,0,0,1-.222-1.6,1.962,1.962,0,0,1,1.187-1.02c2.085-.873,4.439-1.854,7.2-3l.156-.065.228-.095.087-.036c4.062-1.689,8.261-3.437,12.405-5.2a1.524,1.524,0,0,1,.61-.129,2.761,2.761,0,0,1,1.088.3,2.746,2.746,0,0,0,1.1.307,1.5,1.5,0,0,0,.331-.038c1.522-.349,3.1-.582,4.622-.806l.061-.009h.022l.066-.01c.358-.052.847-.124,1.311-.2a6.071,6.071,0,0,1,.914-.08,1.5,1.5,0,0,1,1.242.436c.311.389.344,1.071.1,2.146-1.116,4.964-2.117,9.447-3.078,14.048a2.6,2.6,0,0,1-1.855,2.172c-3.712,1.37-7.556,2.855-10.948,4.166l-.031.012-.013.005-.334.13-.566.219-.374.145q-1.058.409-2.118.817c-.127.049-.272.093-.4.129a1.555,1.555,0,0,0-.887.459c-1.8,2.925-4.721,3.75-7.548,4.549a25.778,25.778,0,0,0-3.667,1.235,2.9,2.9,0,0,1-.66.174c-.49.091-.994.184-1.045.684a9.5,9.5,0,0,0,.317,3.455.383.383,0,0,0,.417.292,2.438,2.438,0,0,0,.6-.114l.014,0a2.938,2.938,0,0,1,.458-.1c1.18-.113,2.334-.17,3.428-.17a24.173,24.173,0,0,1,14.755,4.541c2.937,2.137,4.575,4.5,5.006,7.21s-.347,5.734-2.38,9.242h17.521l12.814,0c2.517,0,2.667.155,2.674,2.728,0,.717-.005,1.441-.013,2.063v.013c-.015,1.411-.031,2.867.036,4.321a2.537,2.537,0,0,1-.49,1.949A2.614,2.614,0,0,1-536.07-2055Zm-89.871-8.794a1.714,1.714,0,0,0-1.381.472,2.226,2.226,0,0,0-.242,1.822,4.338,4.338,0,0,1,0,1.439,1.927,1.927,0,0,0,.206,1.6c.3.359.844.5,1.869.5h.056c8.521-.042,17.085-.048,23.594-.048h9.859q4.929,0,9.858,0h41.661c3.786,0,3.786,0,3.84-3.708l0-.187a1.986,1.986,0,0,0-.352-1.486,1.894,1.894,0,0,0-1.394-.374h-.046c-4.53.03-9.423.044-15.4.044-3.729,0-7.7-.006-10.888-.01h-.617l-4.032-.005h-.013a4.568,4.568,0,0,0-2.172.443c-4.593,2.379-9.676,3.171-14.043,3.632a121.841,121.841,0,0,1-12.8.607c-4.889,0-9.841-.208-14.63-.41h-.054c-2.8-.117-5.689-.238-8.566-.317a2.429,2.429,0,0,1-1.905-.7,2.061,2.061,0,0,1-.266-1.731,1.427,1.427,0,0,0-.1-1.124c-.232-.312-.709-.36-1.312-.421l-.062-.006-.1-.011A5.567,5.567,0,0,0-625.941-2063.8Zm14.194-8.735c-4.2,0-6.726,1.787-8.2,5.795-.689,1.879-1.035,2.822-.708,3.326s1.319.571,3.3.705h.013l.07.005.038,0,.036,0h.021l.04,0c.071.006.14.011.207.014.971.043,2.095.1,3.435.158l.1.005.272.013c4.811.229,9.785.466,14.711.466a96.96,96.96,0,0,0,17.287-1.348c3.776-.672,7.715-1.665,10.948-4.358a8,8,0,0,0,3.071-5.8,8.078,8.078,0,0,0-2.641-6.076,15.994,15.994,0,0,0-6.546-3.759,26.933,26.933,0,0,0-8.072-1.288,24.675,24.675,0,0,0-5.142.545,6.546,6.546,0,0,1-1.34.175,1.388,1.388,0,0,1-1.1-.379c-.343-.382-.434-1.068-.3-2.292l0-.023v-.006a8.81,8.81,0,0,0-.142-3.726l-.335.076-.159.036-.035.008-.088.02h-.006c-.28.064-.629.143-.963.228l-.937.24-.013,0a34.476,34.476,0,0,1-7.929,1.39c-.1,0-.2,0-.33.011l-.062,0h-.006c-.173.008-.357.015-.542.015a1.742,1.742,0,0,1-1.971-1.287c-.435-1.477-.9-3.017-1.3-4.376l-.031-.1-.011-.036,0-.009c-1.254-4.182-2.55-8.507-3.692-12.823-.711-2.687.417-4.886,3.176-6.191a6.938,6.938,0,0,1,2.975-.7c2.841,0,5.186,1.891,6.119,4.936.342,1.113.669,2.269.958,3.289l.037.132.042.148,0,.006c.239.847.511,1.807.79,2.739l.027.091,0,.01c.1.36.223.769.679.769a.965.965,0,0,0,.221-.028l.071-.016c.521-.118,1.059-.24,1.094-.926q0-.042,0-.084c0-.029,0-.054,0-.08v-.008c0-.048.005-.1.007-.144l0-.054,0-.035a20.009,20.009,0,0,0,.04-2.271,33.939,33.939,0,0,0-2.775-10.692,2.326,2.326,0,0,0-2.261-1.665,13.893,13.893,0,0,1-6.752-2.24,1.924,1.924,0,0,0-1.042-.375,1.816,1.816,0,0,0-1.093.445,27.576,27.576,0,0,0-9.386,11.522c-3.331,7.963-2.692,16.088-1.763,22.278.689,4.585,3.123,7.3,7.66,8.533a59.774,59.774,0,0,0,11.51,2.109c.931.067,1.86.153,2.809.243l.056.005c1.972.185,4.012.377,6.027.377a21.937,21.937,0,0,0,6.061-.765,3.935,3.935,0,0,1,1.086-.126c.217,0,.448.01.666.021h.01l.072,0h.05c.171.008.384.019.58.021a1.58,1.58,0,0,1,1.358,1.061c.147.361-.214.538-.562.708a2.668,2.668,0,0,0-.373.206,9.81,9.81,0,0,1-5.982,1.8c-.7.007-1.369.01-1.984.01-5.982,0-12.042-.256-17.9-.5h-.032l-.4-.017h-.013l-2.153-.09C-611.33-2072.526-611.548-2072.531-611.747-2072.531Zm7.093-38.236a3.2,3.2,0,0,0-2.665,1.147,3.034,3.034,0,0,0-.348,2.73c.6,2.023,1.22,4.1,1.768,5.936l.006.021.166.554.01.033.014.047.288.961c.348,1.166.723,2.418,1.091,3.657l.006.021c.863,2.9,1.154,3.879,2.6,3.879a15.44,15.44,0,0,0,3.039-.549c6.553-1.542,11.958-3.042,17.01-4.721a3.625,3.625,0,0,0,2.246-1.661,2.563,2.563,0,0,0,.067-2.018c-.426-1.276-1.07-1.82-2.154-1.82a6.142,6.142,0,0,0-1.809.346l-.007,0-.02.006-.012,0c-4.061,1.292-8.261,2.628-12.574,3.628a5.826,5.826,0,0,1-1.3.181c-1.092,0-1.7-.589-2.039-1.969-.4-1.644-.907-3.266-1.4-4.834l0-.006-.022-.074,0-.013c-.32-1.025-.651-2.085-.949-3.141a3.153,3.153,0,0,0-2.875-2.346Zm23.006,5.171a5.328,5.328,0,0,1,3.128.908,5.694,5.694,0,0,1,1.981,2.662c.2.506.453.732.82.732a1.672,1.672,0,0,0,.593-.136l1.326-.51.226-.087.455-.175c3.153-1.213,6.412-2.467,9.667-3.682.415-.155.62-.3.707-.5a1.112,1.112,0,0,0-.1-.848c-.723-1.8-1.473-3.746-2.02-5.166l0-.006-.016-.043-.013-.032-.111-.287-.007-.017-.008-.021c-.573-1.484-1.165-3.019-1.77-4.53-.021-.055-.04-.117-.055-.165l-.009-.026c-.1-.332-.226-.744-.8-.744a1.438,1.438,0,0,0-.15.008l-.313.118-.018.007c-.277.1-.574.215-.876.339l-.037.015-.393.162-.179.074-.65.268-.387.159-.745.307-.112.046-.275.114-.188.077-.113.047-.5.207-.214.088c-2.658,1.094-5.406,2.224-8.13,3.358-2.16.9-3.243,1.35-3.56,2.122s.145,1.88,1.068,4.078l.022.054c.294.7.57,1.033,1.34,1.033l.119,0C-581.863-2105.593-581.761-2105.595-581.648-2105.595Zm21.986-13.513a5.57,5.57,0,0,0-.888.127,19.258,19.258,0,0,1-2.277.316c-.45.033-.713.136-.826.323-.124.2-.082.509.138,1.021.593,1.382,1.116,2.782,1.721,4.4.266.712.541,1.449.849,2.256.161-.7.308-1.326.445-1.909.257-1.1.479-2.041.683-2.985.082-.38.158-.72.226-1.027l.007-.033c.325-1.459.473-2.125.276-2.37A.417.417,0,0,0-559.662-2119.108Zm-29.387-19.15a3.968,3.968,0,0,0-.536.041c-5.32.733-11.5,1.557-17.553,2.05-1.751.143-2.534.842-2.793,2.494a10.428,10.428,0,0,0,.146,4.684c1.579,5.09,6.249,8.26,12.186,8.275a5.936,5.936,0,0,0,.62.031,11.539,11.539,0,0,0,3.757-.775,11.319,11.319,0,0,0,7.175-7.032,9.867,9.867,0,0,0-1.237-8.679A1.955,1.955,0,0,0-589.049-2138.258Zm-1.949-7c-.378,0-.818.035-1.407.093-1.157.111-2.319.257-3.443.4h-.005l-.061.008-.017,0-.954.12c-1.855.229-4.107.51-7.087.882l-2.27.282-2.258.282a1.84,1.84,0,0,0-1.415.683,1.076,1.076,0,0,0,.112,1.014,2.155,2.155,0,0,1,.111,1.062v.01a1.678,1.678,0,0,0,.22,1.223,1.009,1.009,0,0,0,.766.251,3.02,3.02,0,0,0,.356-.023c3-.366,6.132-.779,8.9-1.143l.293-.039.042-.005.02,0,.041-.005.071-.009c2.844-.375,5.784-.763,8.758-1.129.571-.07.854-.183.977-.39a.889.889,0,0,0-.055-.777C-589.459-2144.676-589.558-2145.254-591-2145.254Z" transform="translate(698.726 2208.395)" fill="#ed8a39" stroke="rgba(0,0,0,0)" stroke-width="1"/>
  </g>
</svg>
