<svg xmlns="http://www.w3.org/2000/svg" width="92.273" height="96.417" viewBox="0 0 92.273 96.417">
  <g id="Group_36" data-name="Group 36" transform="translate(-10.048 0.215)">
    <path id="Path_95" data-name="Path 95" d="M101.137,32.975a2.167,2.167,0,0,1-.12-1.144c.434.108.258.376.241.421a14.525,14.525,0,0,1-.148-3.392c-.129.645.148,1.306-.155,1.9a36.189,36.189,0,0,1,.07-8.1,23.472,23.472,0,0,1,6.851-14.658,24.825,24.825,0,0,1,13.932-6.795,26.307,26.307,0,0,1,12.157.6A24.559,24.559,0,0,1,145.7,10.205,24.611,24.611,0,0,1,151.539,23.2c.381,3.559,2.019,6.717,2.864,10.123.831,3.351,1.843,6.657,2.516,10.047-.133.448-.425.4-.751.239-.878-3.141-1.721-6.294-2.646-9.421-.82-2.773-1.828-5.486-2.745-8.228-.421-1.259-.31-2.689-.648-3.986C147.745,12.827,142.485,5.8,133.3,3.189c-9.6-2.731-18.563-.645-25.667,6.933a20.921,20.921,0,0,0-5.12,10.464c-.036.182-.1.358-.155.536-.518.524-.367,1.242-.446,1.853a37.233,37.233,0,0,0-.2,7.031c.067,1.125.041,2.255.218,3.374.042.264.05.572-.264.73C101.162,33.87,101.462,33.281,101.137,32.975Z" transform="translate(-72.748)" fill="#10293f" stroke="#ed8a39" stroke-width="2"/>
    <path id="Path_96" data-name="Path 96" d="M30.518,379.334a34.869,34.869,0,0,1-11.4-3.083c-.2-.089-.4-.176-.658-.292a8,8,0,0,0,3.029,7.883,17.241,17.241,0,0,0,11.157,4.2,40.8,40.8,0,0,0,20.429-5.108,3.608,3.608,0,0,1,.516-.184,3.656,3.656,0,0,1-1.639,1.308,34.442,34.442,0,0,1-20.128,5.3,16.7,16.7,0,0,1-11.144-4.925c-2.264-2.259-3.325-4.93-2.474-8.146.134-.507-.2-.593-.5-.742a40.879,40.879,0,0,1-5.657-3.584,1.784,1.784,0,0,1-.439-2.9c.736-.863,1.354-1.807,2.072-2.676a8.884,8.884,0,0,1,9.957-2.077c.762.365,1.486.807,2.228,1.214.387,1.165-.5.465-.832.566a9.788,9.788,0,0,0-5.02-1.308,7,7,0,0,0-6.135,3.7c-.294.555-.85.823-1.167,1.333-.213.344-.427.651.026.952a34.232,34.232,0,0,0,4.162,2.723c1.425.274,2.539,1.225,3.845,1.771a41.529,41.529,0,0,0,9.4,2.784,1.754,1.754,0,0,1,1.137.38c.04.092-.09.263.164.268a.266.266,0,0,1,.242.391.332.332,0,0,1-.368.2A1.5,1.5,0,0,0,30.518,379.334Z" transform="translate(0 -294.219)" fill="#10293f" stroke="#ed8a39" stroke-width="2"/>
    <path id="Path_97" data-name="Path 97" d="M155.214,348.269a45.3,45.3,0,0,0,11.308,3.106c1.268.218,2.541.406,3.847.551a18.4,18.4,0,0,1-6.654-4.71c.341-.213.474.1.658.2a45.179,45.179,0,0,0,14.057,5.5c4.108.747,8.281,1.134,12.317,2.275.208.059.408.15.611.226-.469.625-1.151.248-1.727.366-5.9-1.1-11.9-1.48-17.844-2.255A60.326,60.326,0,0,1,157.4,350.31a11.618,11.618,0,0,1-3.361-1.849c.023-.21-.306-.387-.111-.582.25-.25.423.046.62.161S154.942,348.341,155.214,348.269Z" transform="translate(-115.819 -280.88)" fill="#10293f" stroke="#ed8a39" stroke-width="2"/>
    <path id="Path_98" data-name="Path 98" d="M180.629,430.811c.131-.585-.412-.456-.654-.554a61.515,61.515,0,0,1-11.836-6.442c-.011-.331-.927-.7.04-.99,2.692,1.5,5.386,2.986,8.106,4.433,6.366,3.388,13.049,3.85,19.987,2.519,3.832-.735,7.552-1.906,11.326-2.868a4.519,4.519,0,0,1,.46-.07,20.716,20.716,0,0,0,3.443-.7c1.267-.243,1.257-.3,1.934.044-1.457.658-3.053.7-4.421,1.41-6.382,1.958-12.7,4.2-19.5,4.242a23.2,23.2,0,0,1-7.809-1A1.259,1.259,0,0,0,180.629,430.811Z" transform="translate(-127.064 -342.254)" fill="#10293f" stroke="#ed8a39" stroke-width="2"/>
    <path id="Path_99" data-name="Path 99" d="M293.008,353.089l.484.146a33.832,33.832,0,0,0-5.307-4.887,80.723,80.723,0,0,0-18.339-10.014,152.12,152.12,0,0,0-17.092-5.9c-.208-.058-.406-.152-.775-.292a5.42,5.42,0,0,1,1.811.2c.558.07,1.108.218,1.659.342a89.979,89.979,0,0,1,27.473,10.585c5.356,3.264,10.082,7.21,13.225,12.778a8.058,8.058,0,0,1,.608,1.322c-1.233-1.4-1.913-3.27-3.747-4.107-.068-.037-.091-.075-.069-.113S292.986,353.089,293.008,353.089Z" transform="translate(-195.381 -268.688)" fill="#10293f" stroke="#ed8a39" stroke-width="2"/>
    <path id="Path_100" data-name="Path 100" d="M194.954,65.829a45.521,45.521,0,0,0-1.357-8.356,36.952,36.952,0,0,0-10.465-16.854q-.991-.94-1.985-1.875a5.528,5.528,0,0,0-5.008-1.449,7.885,7.885,0,0,0-1.642.4c-.186.066-.407.058-.475-.16-.075-.241.162-.31.325-.376a8.917,8.917,0,0,1,3.115-.594,6.487,6.487,0,0,1,3.55.979,2.336,2.336,0,0,0,.925.451c7.054,5.7,11.822,12.827,13.591,21.82a1.469,1.469,0,0,1,0,.281,4.167,4.167,0,0,0,.151,2.122,40.865,40.865,0,0,1,.137,8.34,33.126,33.126,0,0,1-.972,5.91c-.072.278-.025.754-.471.665-.421-.084-.279-.54-.2-.8a27.159,27.159,0,0,0,.675-4.254,49.174,49.174,0,0,0,.249-6.182c0-.126.016.039-.017-.081C195.055,65.726,194.99,65.739,194.954,65.829Z" transform="translate(-132.149 -29.015)" fill="#10293f" stroke="#ed8a39" stroke-width="2"/>
    <path id="Path_101" data-name="Path 101" d="M323.133,164.409c.837,12.578-4.31,30.99-9.387,33.57C320.068,187.644,321.629,176.035,323.133,164.409Z" transform="translate(-245.469 -132.693)" fill="#10293f" stroke="#ed8a39" stroke-width="2"/>
    <path id="Path_102" data-name="Path 102" d="M155.3,392.444a55.262,55.262,0,0,0,6.251,1.319,27.321,27.321,0,0,1,7.866,2.781,41.327,41.327,0,0,0,9.407,3.764,2.951,2.951,0,0,0,1.611.412,1.056,1.056,0,0,1,1.017.55c-1.667.274-3.2-.377-4.777-.381a27.115,27.115,0,0,1-6.994-2.7,37.081,37.081,0,0,0-11-3.71,10.318,10.318,0,0,1-3.032-.919c-.3-.348-.766-.366-1.149-.548-.253-.12-.618-.212-.5-.562.1-.3.44-.149.674-.1C154.881,392.391,155.062,392.574,155.3,392.444Z" transform="translate(-115.905 -317.472)" fill="#10293f" stroke="#ed8a39" stroke-width="2"/>
    <path id="Path_103" data-name="Path 103" d="M312.137,181.132a64.019,64.019,0,0,1-3.593,12.645,78.3,78.3,0,0,1-4.97,10.453c-.106.185-.214.369-.424.734a1.437,1.437,0,0,1,.218-1.088,141.545,141.545,0,0,0,7.171-21.3c.208-.882.427-1.761.641-2.642a6.293,6.293,0,0,0,.474-1.953c.078-.3,0-.833.467-.77.422.056.343.528.292.867a14.656,14.656,0,0,1-.278,1.853A2.14,2.14,0,0,0,312.137,181.132Z" transform="translate(-236.845 -143.07)" fill="#10293f" stroke="#ed8a39" stroke-width="2"/>
    <path id="Path_104" data-name="Path 104" d="M293.515,171.453c-.282,8.871-3.981,16.223-10.1,22.5C287.879,186.941,291.607,179.6,293.515,171.453Z" transform="translate(-220.877 -138.405)" fill="#10293f" stroke="#ed8a39" stroke-width="2"/>
    <path id="Path_105" data-name="Path 105" d="M138.164,37.058c-.5.259-.812-.168-1.154-.367a6.761,6.761,0,0,0-6.571-.051c.625-.153,1.245-.338,1.877-.452a6.418,6.418,0,0,1,5.026,1.255c.127.091.234.227.031.368-2.874-2.038-5.759-1.622-8.559.091a15.322,15.322,0,0,0-6.014,7.77,38.594,38.594,0,0,0-2.187,9.623,52.906,52.906,0,0,0-.436,6.3q-.063.154-.149.012c0-5.913.421-11.77,2.691-17.318a14.312,14.312,0,0,1,6.612-7.725c2.9-1.491,5.829-1.687,8.647.289A1.2,1.2,0,0,1,138.164,37.058Z" transform="translate(-88.377 -28.081)" fill="#10293f" stroke="#ed8a39" stroke-width="2"/>
    <path id="Path_106" data-name="Path 106" d="M249.827,166.773l.15-.861a45.6,45.6,0,0,1-.737,12.013,17.651,17.651,0,0,0,1.183-5.045,53.085,53.085,0,0,0,.18-8.064,18.977,18.977,0,0,0-.289-2.51,1.629,1.629,0,0,1,.087-1.268,37.773,37.773,0,0,1,.582,8.112,63.254,63.254,0,0,1-.879,7.1,26.1,26.1,0,0,1-5.316,11.99,11.223,11.223,0,0,1-2.664,2.5c-.183-.02-.365-.044-.453-.242,4.773-4.15,6.8-9.624,7.641-15.7A61.594,61.594,0,0,0,249.827,166.773Z" transform="translate(-187.022 -129.959)" fill="#10293f" stroke="#ed8a39" stroke-width="2"/>
    <path id="Path_107" data-name="Path 107" d="M102.761,119.091c.389.176.219.7.674,1a57.556,57.556,0,0,1-.235-8.349,19.835,19.835,0,0,1,.553-4.549c.122-.482.161-.038.225.045a35.252,35.252,0,0,0-.506,8.988,78.307,78.307,0,0,0,3.087,18.381,5.721,5.721,0,0,1,.108,3.315,14.136,14.136,0,0,0-.3,1.767c-.187.706.057,1.44-.138,2.146a23.364,23.364,0,0,0,.189,3.64c.029.288.26.615-.158.817a9.527,9.527,0,0,1-.26-2.9,19.81,19.81,0,0,1,.006-3.82,5.5,5.5,0,0,1,.071-1.4,6.469,6.469,0,0,0-.314-3.941A73.993,73.993,0,0,1,102.761,119.091Z" transform="translate(-74.373 -86.116)" fill="#10293f" stroke="#ed8a39" stroke-width="2"/>
    <path id="Path_108" data-name="Path 108" d="M393.845,226.205c.063-.077.1-.325.138-.237.236.5.415.044.613,0,.7,3.044,1.323,6.1,1.806,9.19a134.351,134.351,0,0,1,1.813,19.132,8.082,8.082,0,0,1-.047,1.128c-.266-4.3-.654-8.581-1.266-12.841a159.07,159.07,0,0,0-2.963-15.629A6.25,6.25,0,0,1,393.845,226.205Z" transform="translate(-310.425 -182.599)" fill="#10293f" stroke="#ed8a39" stroke-width="2"/>
    <path id="Path_109" data-name="Path 109" d="M397.647,436.8c0,.057,0,.114,0,.17-4.8-1.824-9.515-.863-14.225.405-.482.13-.969.24-1.454.36-.546-.258-.116-.319.088-.372,1.348-.349,2.7-.684,4.034-1.1a22.263,22.263,0,0,0-3.932.732c-.386.111-.767.335-1.146-.012,3.919-1.059,7.857-1.994,11.967-1.525A11.13,11.13,0,0,1,397.647,436.8Z" transform="translate(-300.02 -352.397)" fill="#10293f" stroke="#ed8a39" stroke-width="2"/>
    <path id="Path_110" data-name="Path 110" d="M346.745,137.378c-.444-.99.116-1.948.113-2.927,0-.31.122-.6-.251-.956-.213.952-.41,1.83-.609,2.707,0,.022-.044.057-.055.053a1.292,1.292,0,0,1-.156-.076c.189-1.86.583-3.689.82-5.544a45.844,45.844,0,0,0,.376-6.854,1.273,1.273,0,0,1,.072-.53C348,127.981,347.51,132.682,346.745,137.378Z" transform="translate(-271.454 -99.316)" fill="#10293f" stroke="#ed8a39" stroke-width="2"/>
    <path id="Path_111" data-name="Path 111" d="M121.292,390.509c-.608.306.2.669-.04.99a113.03,113.03,0,0,1-10.37-7.6c-.315-.251-.642-.486-.964-.729.089-.375.264-.116.374-.034C113.851,385.758,117.588,388.109,121.292,390.509Z" transform="translate(-80.177 -309.937)" fill="#10293f" stroke="#ed8a39" stroke-width="2"/>
    <path id="Path_112" data-name="Path 112" d="M274.019,435.386c.871-.547,1.66.214,2.516.17a7.09,7.09,0,0,1,2.031.177c-.751-.511-1.7-.275-2.459-.7-.064-.036-.125-.079-.187-.119l.248-.111a41.877,41.877,0,0,0,10.529.461A27.063,27.063,0,0,1,274.019,435.386Z" transform="translate(-213.253 -351.969)" fill="#10293f" stroke="#ed8a39" stroke-width="2"/>
    <path id="Path_113" data-name="Path 113" d="M85.033,348.739a.38.38,0,0,1,.4-.127c.132.028.253.18.284.151.261-.265-.587-.473.144-.591,2.911,1.3,4.965.057,5.194-3.184.057-.812,0-1.631,0-2.447-.085-.188-.153-.368.174-.351a13.232,13.232,0,0,1,.1,4.125,3.788,3.788,0,0,1-2.794,3.175A5.715,5.715,0,0,1,85.033,348.739Z" transform="translate(-59.996 -276.863)" fill="#10293f" stroke="#ed8a39" stroke-width="2"/>
    <path id="Path_114" data-name="Path 114" d="M129.23,375.237c-.366.385-.761-.234-1.188.074.392.5,1.021.477,1.513.716.17.083.513.18.023.322a15.419,15.419,0,0,1-7.746-5.3A20.926,20.926,0,0,0,129.23,375.237Z" transform="translate(-89.839 -300.265)" fill="#10293f" stroke="#ed8a39" stroke-width="2"/>
    <path id="Path_115" data-name="Path 115" d="M139.627,320.062c-.512.356-.721-.318-1.13-.332-.2.158.3.378-.04.523-2.916-1.858-4.349-4.965-3.619-7.893a3.025,3.025,0,0,1,.125,1.306,7.27,7.27,0,0,0,2.931,5.167C138.445,319.276,139.047,319.655,139.627,320.062Z" transform="translate(-100.232 -252.674)" fill="#10293f" stroke="#ed8a39" stroke-width="2"/>
    <path id="Path_116" data-name="Path 116" d="M194.129,316.864a.524.524,0,0,1,.453.242c-3.457,2.579-7.178,3.982-11.526,2.58-.026-.154-.017-.267.184-.16,3.515.982,6.67.032,9.653-1.813C193.317,317.451,193.717,317.148,194.129,316.864Z" transform="translate(-139.478 -256.325)" fill="#10293f" stroke="#ed8a39" stroke-width="2"/>
    <path id="Path_117" data-name="Path 117" d="M343.028,391.291l1.727-.366a37.71,37.71,0,0,1,7.116,2.7c.062.165.032.243-.16.169A56.512,56.512,0,0,0,343.028,391.291Z" transform="translate(-269.215 -316.385)" fill="#10293f" stroke="#ed8a39" stroke-width="2"/>
    <path id="Path_118" data-name="Path 118" d="M120.281,202.691c.275.249.187.585.193.887a49.86,49.86,0,0,0,.724,7.272,1.074,1.074,0,0,1-.11.84,66.136,66.136,0,0,1-.97-9.025C120.184,202.6,120.238,202.607,120.281,202.691Z" transform="translate(-88.447 -163.68)" fill="#10293f" stroke="#ed8a39" stroke-width="2"/>
    <path id="Path_119" data-name="Path 119" d="M123.341,322.823c.468,1.518.692,3.1,1.19,4.616a16.013,16.013,0,0,1-1.377-4.221C123.263,323.108,123.164,322.9,123.341,322.823Z" transform="translate(-90.91 -261.158)" fill="#10293f" stroke="#ed8a39" stroke-width="2"/>
    <path id="Path_120" data-name="Path 120" d="M119.925,179.407a.434.434,0,0,1-.164-.025c.035-1.82-.19-3.64-.016-5.46a.35.35,0,0,1,.149-.012Z" transform="translate(-88.092 -140.395)" fill="#10293f" stroke="#ed8a39" stroke-width="2"/>
    <path id="Path_121" data-name="Path 121" d="M101.8,150.253v-2.127c.218,1.308.2,2.619.52,4.084-.409-.347-.183-.72-.459-.89Z" transform="translate(-73.594 -119.488)" fill="#10293f" stroke="#ed8a39" stroke-width="2"/>
    <path id="Path_122" data-name="Path 122" d="M134.127,271.237l-1.374-2.563.206-.11,1.406,2.533Z" transform="translate(-98.694 -217.157)" fill="#10293f" stroke="#ed8a39" stroke-width="2"/>
    <path id="Path_123" data-name="Path 123" d="M173.709,324.424l-.184.16a4.875,4.875,0,0,1-2.232-1.68Z" transform="translate(-129.948 -261.223)" fill="#10293f" stroke="#ed8a39" stroke-width="2"/>
    <path id="Path_124" data-name="Path 124" d="M121.815,312.94l-.187.4-.356-1.883c.209-.242.107-.544.158-.816Z" transform="translate(-89.385 -251.275)" fill="#10293f" stroke="#ed8a39" stroke-width="2"/>
    <path id="Path_125" data-name="Path 125" d="M119.118,279.412q0,1.91-.006,3.82A9.918,9.918,0,0,1,119.118,279.412Z" transform="translate(-87.484 -225.954)" fill="#10293f" stroke="#ed8a39" stroke-width="2"/>
    <path id="Path_126" data-name="Path 126" d="M126.386,253.1c.217.659.778,1.19.852,2.139A4.107,4.107,0,0,1,126.386,253.1Z" transform="translate(-93.531 -204.62)" fill="#10293f" stroke="#ed8a39" stroke-width="2"/>
    <path id="Path_127" data-name="Path 127" d="M155.694,305.6l1.536,1.841a4.335,4.335,0,0,1-1.664-1.732C155.569,305.63,155.61,305.592,155.694,305.6Z" transform="translate(-117.194 -247.192)" fill="#10293f" stroke="#ed8a39" stroke-width="2"/>
    <path id="Path_128" data-name="Path 128" d="M116.288,336.847l-.175.351c-.273-.422-.176-.878-.116-1.6C116.13,336.183,116.393,336.46,116.288,336.847Z" transform="translate(-85.052 -271.519)" fill="#10293f" stroke="#ed8a39" stroke-width="2"/>
    <path id="Path_129" data-name="Path 129" d="M152.115,300.746a3.111,3.111,0,0,1-.8-1.269,3.226,3.226,0,0,1,.933,1.16A.274.274,0,0,1,152.115,300.746Z" transform="translate(-113.744 -242.225)" fill="#10293f" stroke="#ed8a39" stroke-width="2"/>
    <path id="Path_130" data-name="Path 130" d="M120.933,282.173a5.367,5.367,0,0,1,.138-2.146Z" transform="translate(-89.076 -226.453)" fill="#10293f" stroke="#ed8a39" stroke-width="2"/>
    <path id="Path_131" data-name="Path 131" d="M388.957,405.352l.16-.169a2.587,2.587,0,0,1,1.029.578A1.555,1.555,0,0,1,388.957,405.352Z" transform="translate(-306.461 -327.947)" fill="#10293f" stroke="#ed8a39" stroke-width="2"/>
    <path id="Path_134" data-name="Path 134" d="M79.677,446.947a53.215,53.215,0,0,0,10.8,3.02C87.039,451.422,81.151,449.518,79.677,446.947Z" transform="translate(-55.653 -361.815)" fill="#10293f" stroke="#ed8a39" stroke-width="2"/>
    <path id="Path_135" data-name="Path 135" d="M118.249,443.265c2.241.05,4.483.113,6.725,0,.212-.01.51-.271.556.194a51.471,51.471,0,0,1-10.127.387,12.825,12.825,0,0,1-1.376-.2c.268-.326.724-.016,1.04-.322-.118-.331-.491-.127-.734-.349l.488-.08a15.089,15.089,0,0,0,2.218.242c.054.17.05.376.273.441.019-.114-.223-.274.028-.338A1.6,1.6,0,0,1,118.249,443.265Z" transform="translate(-83.509 -358.525)" fill="#10293f" stroke="#ed8a39" stroke-width="2"/>
    <path id="Path_136" data-name="Path 136" d="M172.483,444.248c-.134-.212-.378-.109-.556-.194.547-.286,1.144-.11,1.714-.189.028.012.064.017.081.038a.813.813,0,0,1,.072.127A2.6,2.6,0,0,1,172.483,444.248Z" transform="translate(-130.462 -359.316)" fill="#10293f" stroke="#ed8a39" stroke-width="2"/>
    <path id="Path_137" data-name="Path 137" d="M350.7,167.694a2.522,2.522,0,0,1,.134,1.584C350.042,168.661,350.554,168.177,350.7,167.694Z" transform="translate(-275.195 -135.357)" fill="#10293f" stroke="#ed8a39" stroke-width="2"/>
    <path id="Path_138" data-name="Path 138" d="M130.023,444.269l-.89.071.554.31c-.477-.023-.847.161-1.139-.167-.018-.021.172-.228.266-.348A2.848,2.848,0,0,1,130.023,444.269Z" transform="translate(-95.282 -359.529)" fill="#10293f" stroke="#ed8a39" stroke-width="2"/>
  </g>
</svg>
