<svg xmlns="http://www.w3.org/2000/svg" width="103.459" height="84.372" viewBox="0 0 103.459 84.372">
  <g id="quran-rehal-svgrepo-com" transform="translate(0.53 -44.497)">
    <path id="Path_160" data-name="Path 160" d="M102.364,80.1l-9.676-33.44a.9.9,0,0,0-1.173-.594l-2.625.965-.419-1.392a.9.9,0,0,0-1.177-.582c-6.256,2.354-9.312,3.122-22.793,4.682-8.494.983-11.935,4.645-13.313,7.157-1.368-2.513-4.8-6.174-13.289-7.157-13.482-1.56-16.538-2.327-22.794-4.682a.9.9,0,0,0-1.177.582L13.51,47.03l-2.627-.961a.9.9,0,0,0-1.172.594L.035,80.1a.9.9,0,0,0,.588,1.105L30.464,90.83l-12.5,10.053a.9.9,0,0,0-.336.7v6.871a.9.9,0,0,0,1.526.644l5.556-5.415a2.192,2.192,0,0,1,3.1.046l1.076,1.108a2.189,2.189,0,0,1-.048,3.1L17.9,118.619a.9.9,0,0,0-.27.643v8.208a.9.9,0,0,0,1.516.653L51.183,97.8l32.088,30.321a.9.9,0,0,0,1.516-.653v-8.208a.9.9,0,0,0-.27-.643L73.58,107.932a2.189,2.189,0,0,1-.046-3.1l1.076-1.108a2.192,2.192,0,0,1,3.095-.047l5.558,5.416a.9.9,0,0,0,1.526-.644v-6.871a.9.9,0,0,0-.335-.7L71.959,90.816l29.817-9.607A.9.9,0,0,0,102.364,80.1ZM82.419,58.932H90.6l.509,1.692h-1.39a.9.9,0,0,0,0,1.8h1.931l2.706,8.987H85.274a.9.9,0,0,0,0,1.8h9.619l.86,2.856a111.449,111.449,0,0,1-31.2,5.818c-6.787.36-10.295,2.9-12.043,4.97q-.231.273-.431.545v-18H65.5a.9.9,0,1,0,0-1.8H52.081V64.338c.119-.667,1.5-6.728,12.625-8.015,13.011-1.505,17.7-2.757,23.614-4.943l1.733,5.755H82.419a.9.9,0,1,0,0,1.8ZM7.029,74.792h5.6a.9.9,0,0,0,0-1.8H7.57l1.56-5.181H22.256a.9.9,0,0,0,0-1.8H9.671l1.051-3.489h4.873a.9.9,0,1,0,0-1.8H11.263l2.853-9.477c6.241,2.313,10.994,3.614,23.576,5.07,11.153,1.291,12.484,7.382,12.592,8.012V74.687H47.1a.9.9,0,0,0,0,1.8h3.18v1.163h-7.2a.9.9,0,1,0,0,1.8h7.2v7.932c-.129-.174-.266-.349-.413-.524-1.74-2.069-5.24-4.611-12.028-4.971a111.444,111.444,0,0,1-31.2-5.818ZM64.707,51.527c13.025-1.507,16.476-2.291,22.319-4.449l.776,2.577c-5.947,2.2-10.34,3.382-23.3,4.882-7.053.816-10.622,3.48-12.419,5.8v-.793C52.2,58.871,53.588,52.814,64.707,51.527ZM15.373,47.078c5.843,2.158,9.294,2.942,22.32,4.449,11.153,1.29,12.484,7.382,12.592,8.012v.776C48.491,58,44.932,55.351,37.9,54.537c-12.524-1.449-16.979-2.673-23.264-5.009Zm-4.2,1.01,1.821.666-8.309,27.6a.9.9,0,0,0,.544,1.1c4.181,1.574,15.718,5.33,32.523,6.221,11.208.594,12.442,7.308,12.536,7.966v3.689L2,79.765Zm8.255,71.552,10.662-10.419a3.987,3.987,0,0,0,.084-5.637L29.1,102.476a3.991,3.991,0,0,0-5.639-.082l-4.031,3.929v-4.309L32.512,91.49l3.728,1.2-4.152,4.144a.9.9,0,0,0,1.27,1.272l4.8-4.8L43.106,94.9l-9.061,9.069a.9.9,0,0,0,1.272,1.271l9.711-9.72,4.436,1.43L19.425,125.382ZM82.99,102.013v4.31l-4.033-3.93a3.992,3.992,0,0,0-5.638.084l-1.076,1.108a3.987,3.987,0,0,0,.082,5.635L82.99,119.64v5.744L52.9,96.955l5.52-1.779,5.649,5.649a.9.9,0,0,0,1.271-1.271l-5-5,9.565-3.082ZM52.081,95.331V91.644c.1-.672,1.371-7.375,12.57-7.969,16.8-.891,28.342-4.647,32.523-6.221a.9.9,0,0,0,.544-1.1l-8.309-27.6,1.82-.669,9.165,31.676Z" transform="translate(0 0)" fill="#ed8a39" stroke="#ed8a39" stroke-width="1"/>
    <path id="Path_161" data-name="Path 161" d="M118.478,119.373h-7.084a.9.9,0,0,0,0,1.8h7.084a.9.9,0,1,0,0-1.8Z" transform="translate(-87.129 -58.643)" fill="#ed8a39" stroke="#ed8a39" stroke-width="1"/>
  </g>
</svg>
