<svg xmlns="http://www.w3.org/2000/svg" width="11.423" height="7.619" viewBox="0 0 11.423 7.619">
  <path id="Icon_ionic-ios-arrow-round-forward" data-name="Icon ionic-ios-arrow-round-forward" d="M15.16,11.4a.518.518,0,0,0,0,.73l2.412,2.416H8.387a.516.516,0,0,0,0,1.032h9.178l-2.412,2.416a.522.522,0,0,0,0,.73.514.514,0,0,0,.726,0l3.269-3.293h0a.579.579,0,0,0,.107-.163.492.492,0,0,0,.04-.2.517.517,0,0,0-.147-.361l-3.269-3.293A.505.505,0,0,0,15.16,11.4Z" transform="translate(-7.875 -11.252)" fill="#ed8a39"/>
</svg>
