<svg xmlns="http://www.w3.org/2000/svg" width="106" height="106" viewBox="0 0 106 106">
  <g id="quotes-svgrepo-com" transform="translate(0.002 0.001)">
    <path id="Path_697" data-name="Path 697" d="M30.529,35.845H11A29.845,29.845,0,0,1,23.9,15.484L29.832,11.5,26.184,6,20.249,9.979A36.477,36.477,0,0,0,4,40.321V62.373a6.632,6.632,0,0,0,6.632,6.632h19.9a6.632,6.632,0,0,0,6.632-6.632v-19.9A6.632,6.632,0,0,0,30.529,35.845Z" transform="translate(9.206 13.838)" fill="#ed8a39"/>
    <path id="Path_698" data-name="Path 698" d="M44.529,35.845H25A29.845,29.845,0,0,1,37.9,15.484L43.832,11.5,40.218,6,34.249,9.979A36.477,36.477,0,0,0,18,40.321V62.373a6.632,6.632,0,0,0,6.632,6.632h19.9a6.632,6.632,0,0,0,6.632-6.632v-19.9A6.632,6.632,0,0,0,44.529,35.845Z" transform="translate(41.63 13.838)" fill="#ed8a39"/>
    <rect id="_Transparent_Rectangle_" data-name="&lt;Transparent Rectangle&gt;" width="106" height="106" transform="translate(-0.002 -0.002)" fill="none"/>
  </g>
</svg>
