<svg xmlns="http://www.w3.org/2000/svg" width="52.285" height="36.746" viewBox="0 0 52.285 36.746">
  <g id="book-svgrepo-com_1_" data-name="book-svgrepo-com (1)" transform="translate(0 -74.596)">
    <g id="Group_78" data-name="Group 78" transform="translate(0 74.596)">
      <g id="Group_77" data-name="Group 77" transform="translate(0 0)">
        <path id="Path_182" data-name="Path 182" d="M51.243,75.99H47.8v-.353a1.042,1.042,0,0,0-1.1-1.04L26.142,75.789,5.584,74.6a1.042,1.042,0,0,0-1.1,1.04v.353H1.042A1.042,1.042,0,0,0,0,77.032V110.3a1.042,1.042,0,0,0,1.042,1.042h50.2a1.042,1.042,0,0,0,1.042-1.042V77.032A1.042,1.042,0,0,0,51.243,75.99ZM27.184,77.816,45.72,76.741v28.592l-18.536,1.074ZM6.565,76.741,25.1,77.816v28.592L6.565,105.333ZM50.2,109.259H2.083V78.073h2.4v28.243a1.041,1.041,0,0,0,.981,1.04l20.619,1.2.06,0h0l.06,0,20.619-1.2a1.042,1.042,0,0,0,.981-1.04V78.073h2.4Z" transform="translate(0 -74.596)" fill="#ed8a39"/>
        <path id="Path_183" data-name="Path 183" d="M142.261,126.439l-7.271-.422a1.042,1.042,0,0,0-.121,2.08l7.271.422.061,0a1.042,1.042,0,0,0,.059-2.081Z" transform="translate(-119.943 -120.66)" fill="#ed8a39"/>
        <path id="Path_184" data-name="Path 184" d="M84.183,125.159l1.793.1.061,0a1.042,1.042,0,0,0,.059-2.081l-1.793-.1a1.042,1.042,0,1,0-.121,2.08Z" transform="translate(-74.536 -118.028)" fill="#ed8a39"/>
        <path id="Path_185" data-name="Path 185" d="M96.853,169.711l-12.55-.728a1.042,1.042,0,1,0-.121,2.08l12.55.728.061,0a1.042,1.042,0,0,0,.059-2.081Z" transform="translate(-74.535 -159.151)" fill="#ed8a39"/>
        <path id="Path_186" data-name="Path 186" d="M96.853,216.572l-12.55-.728a1.042,1.042,0,1,0-.121,2.08l12.55.728.061,0a1.042,1.042,0,0,0,.059-2.081Z" transform="translate(-74.535 -201.132)" fill="#ed8a39"/>
        <path id="Path_187" data-name="Path 187" d="M96.853,262.478l-12.55-.727a1.042,1.042,0,1,0-.121,2.08l12.55.728.061,0a1.042,1.042,0,0,0,.059-2.081Z" transform="translate(-74.535 -242.257)" fill="#ed8a39"/>
        <path id="Path_188" data-name="Path 188" d="M334.865,261.749l-7.769.45a1.042,1.042,0,0,0,.059,2.081l.061,0,7.769-.45a1.042,1.042,0,0,0-.121-2.08Z" transform="translate(-292.149 -242.255)" fill="#ed8a39"/>
        <path id="Path_189" data-name="Path 189" d="M282.884,267.792l-1.693.1a1.042,1.042,0,0,0,.059,2.081l.061,0,1.693-.1a1.042,1.042,0,0,0-.121-2.08Z" transform="translate(-251.025 -247.669)" fill="#ed8a39"/>
        <path id="Path_190" data-name="Path 190" d="M293.742,215.845l-12.55.728a1.042,1.042,0,0,0,.059,2.081l.061,0,12.55-.728a1.042,1.042,0,1,0-.121-2.08Z" transform="translate(-251.025 -201.132)" fill="#ed8a39"/>
        <path id="Path_191" data-name="Path 191" d="M293.742,168.983l-12.55.728a1.042,1.042,0,0,0,.059,2.081l.061,0,12.55-.728a1.042,1.042,0,1,0-.121-2.08Z" transform="translate(-251.025 -159.151)" fill="#ed8a39"/>
        <path id="Path_192" data-name="Path 192" d="M293.742,123.078l-12.55.728a1.042,1.042,0,0,0,.059,2.081l.061,0,12.55-.728a1.042,1.042,0,1,0-.121-2.08Z" transform="translate(-251.025 -118.027)" fill="#ed8a39"/>
      </g>
    </g>
  </g>
</svg>
