<svg xmlns="http://www.w3.org/2000/svg" width="50.627" height="45.237" viewBox="0 0 50.627 45.237">
  <g id="building-svgrepo-com_1_" data-name="building-svgrepo-com (1)" transform="translate(1 -21.51)">
    <path id="Path_195" data-name="Path 195" d="M71.767,55.046V50.239a.958.958,0,0,0-.958-.958H58.017a.958.958,0,0,0-.958.958v4.807a.958.958,0,0,1-.415.789L45.969,63.17a.958.958,0,0,0-.415.789v21.4a.958.958,0,0,0,.958.958h35.8a.958.958,0,0,0,.958-.958v-21.4a.958.958,0,0,0-.415-.789L72.182,55.835A.958.958,0,0,1,71.767,55.046Z" transform="translate(-40.1 -23.566)" fill="none" stroke="#ed8a39" stroke-width="2"/>
    <path id="Path_197" data-name="Path 197" d="M118.266,159.965a1.8,1.8,0,0,1-1.8-1.8V144.722a9.476,9.476,0,0,0-18.953,0V158.17a1.8,1.8,0,1,1-3.592,0V144.722a13.068,13.068,0,0,1,26.136,0V158.17A1.8,1.8,0,0,1,118.266,159.965Z" transform="translate(-82.68 -96.077)" fill="none" stroke="#ed8a39" stroke-width="2"/>
    <path id="Path_199" data-name="Path 199" d="M163.644,211.018a5.369,5.369,0,0,0-5.363,5.363v11.9h10.726v-11.9A5.369,5.369,0,0,0,163.644,211.018Z" transform="translate(-139.331 -165.939)" fill="none" stroke="#ed8a39" stroke-width="2"/>
    <path id="Path_201" data-name="Path 201" d="M46.831,357.235H1.8a1.8,1.8,0,1,1,0-3.592H46.831a1.8,1.8,0,1,1,0,3.592Z" transform="translate(0 -291.488)" fill="#fff" stroke="#ed8a39" stroke-width="2"/>
    <path id="Path_193" data-name="Path 193" d="M189.873,28.92a1.8,1.8,0,0,1-1.8-1.8V24.306a1.8,1.8,0,1,1,3.592,0v2.819A1.8,1.8,0,0,1,189.873,28.92Z" transform="translate(-165.56 0)" fill="#fff" stroke="#ed8a39" stroke-width="2"/>
  </g>
</svg>
