<svg xmlns="http://www.w3.org/2000/svg" width="89.415" height="85.344" viewBox="0 0 89.415 85.344">
  <g id="teacher-teaching-to-the-class-circular-symbol-svgrepo-com" transform="translate(0 -1.014)">
    <g id="Group_40" data-name="Group 40" transform="translate(0 1.014)">
      <path id="Path_147" data-name="Path 147" d="M44.7,12.7a6.377,6.377,0,1,0-6.377,6.377A6.383,6.383,0,0,0,44.7,12.7Zm-6.375,2.361A2.36,2.36,0,1,1,40.683,12.7,2.365,2.365,0,0,1,38.322,15.064Z" transform="translate(32.191 4.341)" fill="#ed8a39"/>
      <path id="Path_148" data-name="Path 148" d="M6.285,34a6.376,6.376,0,1,0,6.375-6.375A6.383,6.383,0,0,0,6.285,34Zm8.734,0a2.36,2.36,0,1,1-2.361-2.359A2.365,2.365,0,0,1,15.019,34Z" transform="translate(6.334 25.804)" fill="#ed8a39"/>
      <path id="Path_149" data-name="Path 149" d="M33.832,15.55V29.8a2.008,2.008,0,1,0,4.016,0V15.55a2.008,2.008,0,1,0-4.016,0Z" transform="translate(34.095 11.611)" fill="#ed8a39"/>
      <path id="Path_150" data-name="Path 150" d="M38.991,38.709a1.977,1.977,0,0,0,1.309-.516,1.764,1.764,0,0,0,.3.058,2.011,2.011,0,0,0,1.42-.588l9.541-9.541a2.006,2.006,0,0,0,0-2.839L40.408,14.132A2.009,2.009,0,0,0,38.22,13.7a2.026,2.026,0,0,0-1.086,1.086,1.988,1.988,0,0,0-.153.767V36.7A2.015,2.015,0,0,0,38.991,38.709ZM41,33V20.4l6.3,6.3Z" transform="translate(37.268 11.612)" fill="#ed8a39"/>
      <path id="Path_151" data-name="Path 151" d="M40.815,42.018a2.006,2.006,0,0,0,2.008-2.008V18.858c0-.01-.006-.018-.006-.028a1.911,1.911,0,0,0-.1-.5c-.026-.09-.026-.189-.058-.271a1.9,1.9,0,0,0-.2-.3,2.124,2.124,0,0,0-.231-.331A2.2,2.2,0,0,0,42,17.28,2.063,2.063,0,0,0,41.566,17c-.012,0-.016-.012-.028-.016L24.546,10.4A2.008,2.008,0,0,0,23.1,14.14l15.709,6.092V40.006A2.014,2.014,0,0,0,40.815,42.018Z" transform="translate(21.984 8.303)" fill="#ed8a39"/>
      <path id="Path_152" data-name="Path 152" d="M50.959,35.862H8.826V5.914a2.008,2.008,0,1,0-4.016,0V37.869a2.006,2.006,0,0,0,2.008,2.008H50.959a2.008,2.008,0,1,0,0-4.016Z" transform="translate(4.847 1.9)" fill="#ed8a39"/>
      <path id="Path_153" data-name="Path 153" d="M0,3.022A2.006,2.006,0,0,0,2.008,5.03H74.88a2.008,2.008,0,1,0,0-4.016H2.008A2.007,2.007,0,0,0,0,3.022Z" transform="translate(0 -1.014)" fill="#ed8a39"/>
      <path id="Path_154" data-name="Path 154" d="M12.09,21.865v-9.6a2.008,2.008,0,0,0-4.016,0v9.6a2.008,2.008,0,0,0,4.016,0Z" transform="translate(8.137 8.304)" fill="#ed8a39"/>
      <path id="Path_155" data-name="Path 155" d="M15.524,24.808V9.348a2.008,2.008,0,1,0-4.016,0V24.806a2.008,2.008,0,0,0,4.016,0Z" transform="translate(11.597 5.361)" fill="#ed8a39"/>
      <path id="Path_156" data-name="Path 156" d="M19.818,20.928V13.2a2.008,2.008,0,1,0-4.016,0v7.73a2.008,2.008,0,0,0,4.016,0Z" transform="translate(15.925 9.241)" fill="#ed8a39"/>
      <path id="Path_157" data-name="Path 157" d="M6.432,51.441H22.639a1.289,1.289,0,0,0,.175-.038H55.058A2,2,0,0,0,57.066,49.4V37.67a2,2,0,0,0-2.008-2.008H22.639a1.682,1.682,0,0,0-.175.036H6.432a2.006,2.006,0,0,0-2.008,2.008V49.433A2,2,0,0,0,6.432,51.441ZM53.05,47.387H40.857v-7.71H53.05Zm-16.211,0H24.648v-7.71H36.839ZM8.44,39.714H20.631v7.712H8.44Z" transform="translate(4.458 33.903)" fill="#ed8a39"/>
      <path id="Path_158" data-name="Path 158" d="M14.358,33.984a6.375,6.375,0,1,0,6.375-6.375A6.384,6.384,0,0,0,14.358,33.984Zm8.732,0a2.359,2.359,0,1,1-2.359-2.359A2.365,2.365,0,0,1,23.09,33.984Z" transform="translate(14.47 25.788)" fill="#ed8a39"/>
      <path id="Path_159" data-name="Path 159" d="M28.8,27.609a6.376,6.376,0,1,0,6.379,6.375A6.384,6.384,0,0,0,28.8,27.609Zm0,8.732a2.359,2.359,0,1,1,2.363-2.361A2.364,2.364,0,0,1,28.8,36.341Z" transform="translate(22.604 25.788)" fill="#ed8a39"/>
    </g>
  </g>
</svg>
